<?xml version="1.0" standalone="yes"?>
<svg xmlns="http://www.w3.org/2000/svg" width="386" height="562">
<path style="fill:#35caea; stroke:none;" d="M191 8C185.886 29.3411 171.024 47.5403 158.995 65.2855C144.528 86.6293 126.196 103.959 109.129 123C83.4314 151.668 56.9882 179.458 34.8465 211C10.6486 245.472 -5.83633 286.51 5.15509 329C24.5796 404.091 101.804 445.893 175 450.91C207.375 453.13 239.391 447.829 270 437.884C319.597 421.77 365.581 382.641 379.511 331C382.926 318.34 383.537 304.041 382.961 291C381.646 261.244 365.306 231.629 348.421 208C314.729 160.849 269.73 123.104 234.344 77.2855C223.179 62.8289 213.441 48.0198 204.895 32C200.728 24.1888 195.533 16.9072 194 8L191 8M76 208C75.0646 212.7 72.1732 215.879 69.9035 220C66.9531 225.357 64.7205 231.425 62.1806 237C56.9284 248.529 53.5392 263.445 52.1289 276C51.1503 284.712 52.8549 292.663 53.8711 301.09C58.9961 343.588 88.3369 380.473 124 402.946C138.43 412.039 154.491 417.326 170 424C164.025 426.506 156.069 423.74 150 422.349C132.856 418.42 115.265 412.869 100 404.17C89.5215 398.198 79.2779 392.771 70.1659 384.714C39.4175 357.523 20.8922 318.905 32.6651 278C36.2052 265.7 41.1315 254.851 47.8302 244C53.8014 234.328 59.5824 225.634 67.0355 217C69.9456 213.629 71.9657 210.009 76 208M197 454C196.562 475.2 179.519 495.517 164.285 508.59C147.262 523.197 127.256 536.188 106 543.907C92.1834 548.925 77.2841 552.159 63 555.559C58.3686 556.662 53.5493 556.643 49 558C56.3995 561.105 67.9927 559 76 559L137 559L347 559C343.023 555.987 336.856 556.722 332 555.714C321.228 553.479 310.458 550.54 300 547.065C269.01 536.767 239.927 519.937 218.834 494.705C209.399 483.418 200.884 468.796 199 454L197 454z"/>
</svg>
