<?xml version="1.0" standalone="no"?>
<!DOCTYPE svg PUBLIC "-//W3C//DTD SVG 20010904//EN"
 "http://www.w3.org/TR/2001/REC-SVG-20010904/DTD/svg10.dtd">
<svg version="1.0" xmlns="http://www.w3.org/2000/svg"
 width="1124.000000pt" height="1124.000000pt" viewBox="0 0 1124.000000 1124.000000"
 preserveAspectRatio="xMidYMid meet">
<metadata>
Created by potrace 1.14, written by Peter Selinger 2001-2017
</metadata>
<g transform="translate(0.000000,1124.000000) scale(0.100000,-0.100000)"
fill="#000000" stroke="none">
<path d="M5546 10968 c-20 -62 -46 -131 -56 -153 -11 -22 -19 -45 -20 -52 0
-6 -3 -13 -7 -15 -5 -1 -26 -40 -48 -85 -22 -46 -43 -83 -47 -83 -5 0 -8 -5
-8 -12 0 -12 -132 -221 -211 -333 -27 -38 -70 -101 -97 -140 -26 -38 -55 -78
-64 -89 -10 -11 -18 -23 -18 -27 0 -4 -6 -14 -13 -21 -6 -7 -25 -33 -41 -57
-16 -25 -33 -50 -38 -55 -5 -6 -43 -56 -84 -111 -42 -55 -80 -101 -85 -103 -5
-2 -9 -8 -9 -12 0 -5 -12 -22 -27 -38 -16 -16 -37 -40 -48 -54 -27 -35 -128
-149 -196 -223 -31 -33 -67 -72 -80 -86 -26 -28 -231 -248 -289 -310 -19 -20
-60 -65 -90 -99 -30 -34 -66 -74 -80 -89 -40 -43 -371 -410 -425 -470 -16 -19
-51 -57 -76 -85 -25 -28 -61 -69 -80 -90 -19 -22 -45 -51 -58 -65 -13 -14 -42
-48 -65 -74 -22 -27 -50 -59 -61 -72 -11 -12 -40 -46 -65 -75 -25 -29 -50 -57
-55 -64 -6 -6 -39 -47 -75 -91 -35 -44 -67 -82 -70 -85 -3 -3 -28 -33 -54 -67
-27 -35 -54 -63 -59 -63 -6 0 -8 -3 -4 -6 3 -3 -13 -29 -36 -58 -23 -28 -58
-73 -77 -100 -19 -26 -43 -56 -52 -67 -10 -10 -18 -23 -18 -29 0 -5 -4 -10
-10 -10 -5 0 -10 -6 -10 -14 0 -8 -4 -16 -8 -18 -5 -1 -28 -32 -53 -68 -24
-36 -46 -67 -49 -70 -4 -3 -29 -41 -57 -85 -29 -44 -56 -84 -60 -90 -5 -5 -12
-17 -16 -25 -4 -8 -18 -33 -32 -55 -14 -22 -30 -51 -36 -65 -6 -13 -13 -27
-17 -30 -19 -14 -147 -273 -202 -410 -12 -30 -28 -68 -35 -85 -34 -79 -114
-346 -130 -435 -3 -14 -7 -34 -9 -45 -6 -34 -17 -98 -21 -130 -2 -16 -7 -59
-11 -95 -8 -72 -12 -410 -4 -410 3 0 5 -12 6 -28 1 -30 11 -112 19 -154 3 -16
7 -38 9 -50 4 -20 10 -48 31 -138 4 -18 48 -159 65 -210 25 -75 124 -305 134
-312 6 -4 7 -8 2 -8 -5 0 -4 -6 2 -12 5 -7 27 -44 47 -83 52 -95 155 -259 166
-263 5 -2 9 -8 9 -14 0 -6 10 -22 22 -37 13 -15 34 -43 48 -61 87 -117 274
-319 380 -410 14 -12 41 -36 60 -53 89 -80 210 -171 365 -274 61 -40 115 -76
120 -80 6 -4 29 -17 52 -28 24 -11 43 -23 43 -27 0 -5 6 -8 14 -8 7 0 19 -7
26 -15 7 -9 15 -13 18 -11 3 3 17 -3 31 -12 28 -19 149 -79 271 -135 218 -99
605 -227 821 -271 13 -3 39 -9 57 -15 18 -5 33 -10 35 -9 4 0 102 -15 122 -19
18 -4 62 -11 105 -17 8 -1 20 -4 25 -7 6 -3 25 -5 43 -4 17 1 32 -1 32 -4 0
-3 17 -7 38 -7 20 -1 55 -4 77 -7 91 -14 253 -21 470 -21 231 1 432 11 525 28
14 2 49 7 78 10 55 6 110 14 152 22 14 2 41 7 60 10 61 9 75 12 90 18 8 3 33
8 55 11 22 3 58 11 80 17 22 6 45 12 50 13 23 2 114 21 118 25 1 1 9 3 17 5 8
1 58 15 110 30 52 15 102 28 112 30 26 5 180 56 215 71 17 8 35 14 41 14 13 0
244 95 313 130 32 15 60 26 63 22 3 -3 6 0 6 6 0 7 9 12 19 12 11 0 21 4 23 8
2 4 43 30 92 56 118 63 130 70 136 76 10 10 65 41 83 47 9 3 17 9 17 14 0 5
15 16 32 25 38 20 211 145 216 156 2 5 8 8 13 8 5 0 17 8 27 17 10 10 43 38
73 63 160 133 343 320 468 480 28 36 55 70 61 77 5 7 10 15 10 18 0 3 11 18
25 33 14 15 25 32 25 39 0 7 5 13 10 13 6 0 10 5 10 11 0 6 11 25 25 43 14 18
25 38 25 44 0 7 4 12 8 12 8 0 36 51 32 59 -1 2 3 7 8 10 15 9 159 299 167
336 1 5 8 24 15 40 7 17 14 32 15 35 0 3 7 23 14 45 14 46 18 57 20 67 1 4 8
25 16 47 16 45 54 219 60 271 2 19 6 54 9 78 19 143 24 411 12 558 -7 76 -9
93 -20 159 -3 17 -8 46 -11 65 -3 19 -12 62 -21 95 -8 33 -16 69 -18 80 -8 38
-83 250 -120 338 -71 171 -205 424 -313 590 -34 54 -63 102 -63 107 0 4 -3 10
-7 12 -5 2 -32 39 -62 83 -30 44 -69 99 -88 122 -18 23 -33 46 -33 51 0 6 -4
12 -8 14 -4 2 -30 32 -57 68 -49 65 -200 255 -220 276 -5 7 -26 31 -45 55 -19
24 -45 53 -57 66 -13 12 -23 24 -23 27 0 5 -70 83 -122 138 -10 10 -16 18 -14
18 3 0 -21 27 -53 60 -32 33 -56 60 -54 60 2 0 -11 15 -29 34 -18 18 -78 82
-133 142 -130 141 -190 205 -262 280 -32 34 -107 114 -168 178 -60 65 -132
141 -160 170 -42 44 -127 136 -255 276 -14 15 -50 55 -80 90 -30 35 -62 71
-71 79 -8 9 -40 45 -70 80 -30 36 -61 72 -69 82 -41 47 -68 79 -100 119 -19
24 -41 49 -47 56 -7 7 -13 17 -13 22 0 6 -4 12 -9 14 -9 3 -131 155 -131 163
0 3 -7 13 -16 23 -8 9 -35 44 -60 77 -24 33 -48 65 -54 72 -5 7 -10 16 -10 22
0 5 -4 11 -8 13 -12 4 -192 276 -192 288 0 6 -4 10 -10 10 -5 0 -10 4 -10 9 0
5 -22 45 -48 88 -26 43 -63 107 -82 143 -19 36 -37 67 -40 70 -3 3 -15 25 -28
50 -38 73 -67 125 -72 130 -28 27 -126 254 -133 306 -3 24 -9 30 -33 32 -30 3
-30 2 -68 -110z m-2283 -3940 c-9 -24 -31 -65 -48 -93 -53 -85 -95 -166 -137
-265 -22 -52 -56 -128 -74 -168 -19 -41 -34 -75 -34 -77 0 -2 -4 -14 -9 -27
-5 -13 -9 -26 -10 -30 -1 -4 -8 -23 -17 -43 -8 -19 -14 -37 -14 -40 1 -3 -9
-36 -20 -73 -12 -37 -23 -76 -24 -87 -2 -11 -6 -29 -9 -40 -3 -11 -9 -33 -12
-50 -6 -35 -11 -60 -19 -95 -14 -62 -29 -172 -30 -222 -1 -21 -3 -38 -6 -38
-3 0 -4 -30 -4 -67 1 -38 3 -68 4 -68 0 0 3 -29 5 -65 2 -36 7 -81 10 -100 9
-62 17 -114 20 -140 7 -65 26 -179 39 -235 19 -87 40 -165 51 -190 7 -16 16
-46 20 -65 4 -19 11 -40 17 -46 5 -7 11 -21 13 -32 14 -74 222 -479 259 -504
7 -5 7 -8 1 -8 -7 0 -7 -3 0 -8 6 -4 30 -36 55 -72 141 -206 365 -452 558
-611 141 -118 452 -339 452 -323 0 3 13 -4 29 -15 67 -48 297 -154 581 -268
74 -30 154 -63 177 -73 24 -11 47 -20 53 -20 22 0 8 -18 -17 -23 -43 -9 -200
1 -223 13 -11 6 -20 9 -20 6 0 -2 -24 2 -52 10 -29 8 -64 17 -78 20 -14 3 -52
12 -85 21 -33 8 -70 17 -83 19 -13 3 -42 11 -66 19 -23 8 -51 16 -62 18 -10 2
-26 7 -34 10 -8 3 -46 15 -85 27 -62 19 -142 47 -200 71 -11 4 -49 20 -85 34
-64 26 -295 140 -315 155 -5 4 -30 19 -55 32 -146 81 -233 134 -320 196 -45
31 -89 62 -98 67 -19 12 -60 47 -121 102 -188 169 -353 363 -479 564 -54 86
-147 256 -147 270 0 3 -11 30 -24 60 -48 108 -55 132 -102 314 -31 118 -44
247 -43 410 1 170 7 255 17 255 5 0 6 3 3 8 -2 4 0 27 5 52 5 25 12 57 15 72
3 14 14 57 25 95 11 37 22 76 24 86 7 31 71 199 105 272 53 119 116 237 166
317 15 24 32 52 38 63 22 41 130 200 138 203 4 2 8 8 8 14 0 9 42 69 68 96 6
7 12 16 12 20 0 4 13 21 28 38 30 36 68 81 139 169 58 71 113 125 130 125 10
0 9 -11 -4 -42z"/>
<path d="M5699 2147 c-4 -68 -11 -127 -19 -152 -5 -16 -11 -41 -14 -55 -5 -25
-24 -81 -47 -135 -7 -16 -13 -32 -14 -35 -5 -19 -51 -106 -57 -108 -5 -2 -8
-8 -8 -13 0 -6 -18 -37 -40 -69 -22 -32 -40 -63 -40 -69 0 -5 -3 -11 -7 -13
-5 -1 -35 -37 -68 -78 -96 -121 -189 -218 -320 -333 -44 -39 -82 -73 -85 -76
-3 -4 -23 -19 -45 -36 -22 -16 -45 -34 -52 -40 -42 -35 -151 -115 -233 -170
-41 -27 -76 -53 -78 -57 -2 -5 -7 -8 -12 -8 -8 0 -109 -59 -120 -70 -3 -3 -18
-12 -35 -20 -16 -8 -32 -18 -35 -21 -6 -7 -292 -148 -338 -168 -186 -76 -443
-158 -647 -206 -38 -9 -117 -27 -175 -41 -134 -33 -223 -52 -280 -59 -25 -3
-54 -8 -66 -10 -12 -3 -39 -7 -60 -11 -40 -6 -70 -23 -43 -25 7 0 23 -3 34 -5
66 -16 220 -20 355 -10 30 3 1289 5 2798 5 1559 1 2742 5 2742 10 0 5 -15 12
-32 16 -18 4 -37 9 -43 11 -21 6 -62 13 -120 18 -66 7 -107 13 -145 23 -14 3
-31 7 -39 9 -7 1 -34 8 -60 14 -25 6 -55 12 -66 15 -18 3 -57 14 -220 60 -27
7 -69 21 -92 29 -24 8 -43 13 -43 9 0 -3 -6 -1 -12 4 -7 6 -25 13 -40 17 -15
3 -40 11 -55 18 -15 6 -32 12 -38 14 -13 3 -158 57 -210 79 -65 26 -75 31
-188 84 -59 28 -112 51 -117 51 -5 0 -15 6 -22 13 -8 6 -47 30 -88 51 -41 22
-93 51 -115 65 -22 14 -42 26 -45 26 -14 3 -70 41 -70 48 0 4 -6 7 -12 7 -7 0
-26 11 -42 25 -16 14 -33 25 -37 25 -4 0 -14 6 -21 13 -7 7 -29 24 -48 37
-107 73 -208 161 -354 305 -124 123 -186 192 -186 206 0 5 -4 9 -8 9 -8 0
-152 193 -152 203 0 4 -14 26 -31 51 -39 59 -120 232 -148 317 -21 63 -27 86
-37 139 -13 70 -15 76 -34 77 -11 1 -20 -4 -21 -10z"/>
</g>
</svg>
